<svg width="40" height="40" viewBox="0 0 40 40" fill="none" xmlns="http://www.w3.org/2000/svg">
<g clip-path="url(#clip0_41_165)">
<path d="M39.9999 34.94C39.9999 37.6958 37.7641 39.9308 35.0091 39.9308H5.06075C2.30408 39.9308 0.0690918 37.695 0.0690918 34.94V4.99166C0.0690918 2.23583 2.30408 0 5.06075 0H35.0091C37.7649 0 39.9999 2.23583 39.9999 4.99166V34.94Z" fill="url(#paint0_linear_41_165)"/>
<path d="M28.8734 14.4533C28.8734 14.4533 26.605 11.03 22.0975 12.6666C20.2375 13.2916 19.2492 13.0541 18.0867 12.6083C16.9226 12.1608 14.4792 11.4466 11.8642 14.5716C9.24755 17.6983 10.9342 23.205 11.5442 24.6333C12.1542 26.0616 14.6259 31.8974 18.61 29.7541C22.0109 27.8791 23.6401 32.4333 26.8076 28.8008C26.8076 28.8008 28.7267 26.5391 29.4834 23.9491C29.4834 23.9491 26.4017 22.58 26.4017 18.9483C26.4026 15.6433 28.8734 14.4533 28.8734 14.4533Z" fill="black"/>
<path d="M24.6276 6.38672C24.6276 6.38672 20.0068 6.68422 19.9468 11.8934C19.9468 11.8934 24.5401 11.9234 24.6276 6.38672Z" fill="black"/>
<path d="M28.8734 15.655C28.8734 15.655 26.605 12.3108 22.0975 13.91C20.2375 14.5208 19.2492 14.2883 18.0867 13.8525C16.9226 13.4158 14.4792 12.7183 11.8642 15.7708C9.24755 18.825 10.9342 24.2033 11.5442 25.5983C12.1542 26.9933 14.6259 32.6933 18.61 30.5991C22.0109 28.7683 23.6401 33.2167 26.8076 29.6691C26.8076 29.6691 28.7267 27.46 29.4834 24.9292C29.4834 24.9292 26.4017 23.5925 26.4017 20.045C26.4026 16.8175 28.8734 15.655 28.8734 15.655Z" fill="white"/>
<path d="M24.6276 7.77588C24.6276 7.77588 20.0068 8.06673 19.9468 13.1551C19.9468 13.1551 24.5401 13.1834 24.6276 7.77588Z" fill="white"/>
</g>
<defs>
<linearGradient id="paint0_linear_41_165" x1="20.0366" y1="-0.00180208" x2="20.0366" y2="39.9291" gradientUnits="userSpaceOnUse">
<stop stop-color="#242424"/>
<stop offset="1" stop-color="#141414"/>
</linearGradient>
<clipPath id="clip0_41_165">
<rect width="40" height="40" fill="white"/>
</clipPath>
</defs>
</svg>
