<svg width="18" height="18" viewBox="0 0 18 18" fill="none" xmlns="http://www.w3.org/2000/svg">
<path fill-rule="evenodd" clip-rule="evenodd" d="M1.40829 3.06142C1.67189 2.62412 3.12515 1.03663 4.16075 1.08456C4.47057 1.11109 4.74445 1.29765 4.96697 1.51502H4.96783C5.47792 2.0148 6.94145 3.90095 7.02362 4.29803C7.22646 5.27192 6.06505 5.83331 6.42023 6.8149C7.32574 9.03053 8.88598 10.5906 11.1027 11.4952C12.0835 11.8512 12.6449 10.6908 13.6189 10.8927C14.016 10.9757 15.9032 12.4383 16.4022 12.9492V12.9492C16.6187 13.1708 16.807 13.4455 16.8327 13.7553C16.8712 14.8465 15.1851 16.3193 14.8565 16.5075C14.0811 17.0629 13.0694 17.0527 11.8361 16.4793C8.39471 15.0476 2.89492 9.65183 1.43653 6.08064C0.878508 4.8543 0.84085 3.83591 1.40829 3.06142Z" stroke="#52341E" stroke-linecap="round" stroke-linejoin="round"/>
<path d="M11.0561 1.29102C14.1411 1.63352 16.5769 4.06685 16.9236 7.15102" stroke="#52341E" stroke-linecap="round" stroke-linejoin="round"/>
<path d="M11.0561 4.24512C12.5311 4.53262 13.6836 5.68512 13.9711 7.16012" stroke="#52341E" stroke-linecap="round" stroke-linejoin="round"/>
</svg>
