<svg width="40" height="40" viewBox="0 0 40 40" fill="none" xmlns="http://www.w3.org/2000/svg">
<path d="M4 1.90479C1.7908 1.90479 0 3.61907 0 5.71431V36.1905C0 38.2857 1.7908 40 4 40H36C38.21 40 40 38.2857 40 36.1905V5.71431C40 3.61907 38.21 1.90479 36 1.90479H4Z" fill="#30497B"/>
<path d="M4 0C1.7908 0 0 1.70552 0 3.80952V34.2857C0 36.3905 1.7908 38.0952 4 38.0952H36C38.21 38.0952 40 36.3905 40 34.2857V3.80952C40 1.70552 38.21 0 36 0H4Z" fill="#3B5998"/>
<path d="M30 7.61914C25.582 7.61914 22 11.0477 22 15.2382V20.9525H18V26.6668H22V40.0001H28V26.6668H32.908L34 20.9525H28V15.2382C28 14.0953 28.896 13.3334 30 13.3334H34V7.61914H30Z" fill="#30497B"/>
<path d="M30 5.71436C25.582 5.71436 22 9.12559 22 13.3334V19.0477H18V24.762H22V38.0953H28V24.762H32.908L34 19.0477H28V13.3334C28 12.2814 28.896 11.4286 30 11.4286H34V5.71436H30Z" fill="#ECF0F1"/>
<path d="M22 38.0952H28V40H22V38.0952Z" fill="#BDC3C7"/>
</svg>
