<svg width="44" height="44" viewBox="0 0 44 44" fill="none" xmlns="http://www.w3.org/2000/svg">
<g clip-path="url(#clip0_41_159)">
<rect width="44" height="44" fill="#FFFAF0"/>
<path d="M43.9871 0H0.0128906C0.00577133 0 0 0.00577133 0 0.0128906V43.9871C0 43.9942 0.00577133 44 0.0128906 44H43.9871C43.9942 44 44 43.9942 44 43.9871V0.0128906C44 0.00577133 43.9942 0 43.9871 0Z" fill="#FFFAF0"/>
<path d="M33.1719 34.375C37.0391 30.7656 38.7578 24.75 37.7266 18.9922H22.3438V25.3516H31.1094C30.7656 27.4141 29.5625 29.1328 27.8438 30.25L33.1719 34.375Z" fill="#4285F4"/>
<path d="M7.73438 29.3047C8.86488 31.5317 10.4862 33.4729 12.4761 34.9822C14.4659 36.4915 16.7725 37.5293 19.2218 38.0175C21.6711 38.5057 24.1993 38.4316 26.6157 37.8006C29.0322 37.1696 31.2739 35.9983 33.1719 34.375L27.8438 30.25C23.2891 33.2578 15.7266 32.1406 13.1484 25.0938L7.73438 29.3047Z" fill="#34A853"/>
<path d="M13.1485 25.0938C12.461 22.9453 12.461 20.9688 13.1485 18.8203L7.73444 14.6094C5.75787 18.5625 5.15631 24.1484 7.73444 29.3047L13.1485 25.0938Z" fill="#FBBC02"/>
<path d="M13.1484 18.8202C15.0391 12.8906 23.1172 9.45305 28.5312 14.5234L33.2578 9.88274C26.5547 3.43743 13.4922 3.69524 7.73438 14.6093L13.1484 18.8202Z" fill="#EA4335"/>
</g>
<defs>
<clipPath id="clip0_41_159">
<rect width="44" height="44" fill="white"/>
</clipPath>
</defs>
</svg>
