<svg width="499" height="241" viewBox="0 0 499 241" fill="none" xmlns="http://www.w3.org/2000/svg">
<path d="M235.576 214.171L235.431 213.787C235.051 213.944 234.674 214.116 234.3 214.303C233.09 214.902 231.966 215.648 230.856 216.384C230.664 216.511 230.473 216.639 230.281 216.765C230.073 216.954 229.869 217.152 229.669 217.357L229.585 217.443M235.576 214.171C235.197 214.313 234.826 214.466 234.464 214.63C234.463 214.63 234.463 214.63 234.463 214.63C233.043 215.274 231.747 216.098 230.588 217.162C230.509 217.213 230.43 217.265 230.351 217.317M235.576 214.171L235.432 213.787C239.134 212.252 243.108 212.061 247.145 212.32M235.576 214.171C239.341 212.756 243.209 212.444 247.117 212.745L247.145 212.32M230.351 217.317C230.33 217.304 230.308 217.291 230.285 217.277L230.203 217.413M230.351 217.317C230.302 217.349 230.253 217.381 230.203 217.413M230.351 217.317C230.363 217.324 230.375 217.331 230.386 217.338C230.388 217.34 230.391 217.341 230.394 217.343C230.287 217.445 230.182 217.548 230.077 217.655L230.062 217.648M230.203 217.413C230.112 217.472 230.02 217.531 229.928 217.59M230.203 217.413L230.062 217.648M229.928 217.59L229.894 217.576L229.585 217.443M229.928 217.59C229.924 217.593 229.92 217.595 229.916 217.598C229.853 217.638 229.789 217.679 229.724 217.72C229.743 217.719 229.763 217.719 229.782 217.719C229.858 217.721 229.932 217.731 230.002 217.748C230.006 217.749 230.01 217.75 230.014 217.751L230.041 217.719M229.928 217.59L230.062 217.648M229.585 217.443L229.527 217.502L229.319 217.716L229.258 217.779L229.244 217.793L196.698 214.565L196.784 214.733M229.585 217.443L229.459 217.389C229.458 217.389 229.457 217.388 229.456 217.388C229.437 217.38 229.419 217.372 229.401 217.364C229.191 217.275 228.98 217.186 228.768 217.099C228.22 216.908 227.67 216.713 227.117 216.518C225.728 216.027 224.321 215.529 222.896 215.064C222.327 214.9 221.754 214.745 221.18 214.598C221.18 214.598 221.18 214.598 221.18 214.598C218.292 213.86 215.348 213.335 212.489 213.048C208.559 212.654 204.765 212.709 201.483 213.298C201.483 213.298 201.483 213.298 201.483 213.298C200.022 213.56 198.663 213.927 197.439 214.408M197.439 214.408C197.346 214.443 197.191 214.521 197.076 214.58C196.972 214.633 196.865 214.689 196.784 214.733M197.439 214.408C197.437 214.409 197.435 214.41 197.433 214.41L197.556 214.722C197.558 214.722 197.56 214.721 197.561 214.72M197.439 214.408C197.443 214.407 197.447 214.405 197.451 214.404L197.561 214.72M196.784 214.733L196.928 215.009C196.926 215.01 196.925 215.011 196.924 215.011L196.782 214.734C196.783 214.734 196.783 214.733 196.784 214.733ZM197.561 214.72C198.803 214.2 199.938 213.998 201.171 213.777C201.299 213.754 201.427 213.731 201.557 213.708L201.558 213.708C208.18 212.506 214.668 213.058 221.055 215.008L221.056 215.008C221.624 215.18 222.188 215.358 222.75 215.542M197.561 214.72L197.616 214.876L222.75 215.542M222.75 215.542C224.755 216.117 226.718 216.795 228.59 217.566M222.75 215.542L228.59 217.566M228.59 217.566C228.655 217.589 228.72 217.612 228.786 217.635M228.59 217.566L228.786 217.635M228.778 217.644C228.94 217.712 229.101 217.78 229.262 217.849C229.254 217.858 229.246 217.867 229.239 217.876L228.778 217.644ZM228.778 217.644C228.78 217.641 228.783 217.638 228.786 217.635M228.778 217.644L228.786 217.635M230.062 217.648L230.027 217.706L230.041 217.719M230.041 217.719L230.099 217.775C230.137 217.787 230.174 217.801 230.209 217.815C230.181 217.798 230.152 217.781 230.121 217.762C230.097 217.747 230.071 217.732 230.045 217.716L230.041 217.719ZM247.118 212.745C248.187 212.828 249.259 212.956 250.334 213.12L247.118 212.745ZM247.118 212.745L247.145 212.32M247.118 212.745L247.145 212.32M280.126 226.985C280.126 226.985 280.125 226.985 280.125 226.985C279.813 227.012 279.547 227.153 279.314 227.301L279.312 227.302C279.084 227.448 278.857 227.594 278.631 227.74C276.958 228.814 275.3 229.878 273.592 230.86C271.583 232.015 269.552 233.123 267.512 234.235C266.605 234.73 265.696 235.226 264.786 235.727L264.079 236.117C263.587 236.127 263.09 236.239 262.559 236.471C258.934 238.026 255.104 239.005 251.131 239.466C245.861 240.071 240.72 239.733 235.832 237.951C237.856 238.619 239.976 238.96 242.154 239.088L242.155 239.088C246.832 239.355 251.317 238.507 255.664 237.064L255.668 237.07C256.819 236.694 257.953 236.242 259.112 235.78C259.587 235.59 260.066 235.399 260.553 235.211L261.444 234.866L261.312 234.776C261.493 234.74 261.669 234.671 261.843 234.577C264.174 233.353 266.51 232.146 268.85 230.939C270.479 230.097 272.11 229.255 273.741 228.406L273.743 228.405C274.579 227.964 275.411 227.496 276.252 227.022C276.737 226.749 277.225 226.475 277.718 226.203L278.382 225.837L278.36 225.82C278.474 225.78 278.586 225.728 278.697 225.668L278.698 225.667C282.499 223.602 286.338 221.697 290.491 220.505C287.553 221.838 284.898 223.615 282.288 225.363C281.641 225.796 280.998 226.227 280.354 226.648L280.222 226.735L280.163 226.881C280.15 226.915 280.137 226.95 280.126 226.985ZM209.035 237.768C207.829 237.854 206.65 237.842 205.505 237.723C208.273 237.916 210.958 237.586 213.429 236.144C215.406 234.996 217.029 233.41 217.421 231.017C217.633 229.75 217.209 228.459 216.438 227.441C215.666 226.422 214.515 225.633 213.204 225.393C212.483 225.26 211.848 225.212 211.281 225.556C211.158 225.63 211.044 225.72 210.935 225.825C210.953 225.805 210.971 225.786 210.989 225.767C211.234 225.517 211.606 225.325 212.13 225.231C213.197 225.04 214.474 225.31 215.638 225.921C216.8 226.532 217.787 227.452 218.304 228.484C219.26 230.399 218.583 233.053 216.482 234.906C214.403 236.727 211.851 237.571 209.035 237.768L209.035 237.768Z" fill="#FFFAF0" stroke="#FFFAF0"/>
<path d="M104.296 177.585C103.689 178.61 103.675 179.608 104.227 180.645C71.8769 180.699 39.5685 180.752 7.2876 180.818C7.38416 180.313 7.54971 179.82 7.56351 179.315C7.56351 178.809 7.41176 178.304 7.31519 177.758C39.5685 177.705 71.9045 177.652 104.282 177.585H104.296Z" fill="#FFFAF0"/>
<path d="M6.62536 179.262C6.62536 180.592 5.50795 181.643 4.07325 181.656C2.62475 181.656 1.45215 180.619 1.45215 179.288C1.45215 177.971 2.62474 176.88 4.04565 176.88C5.46656 176.88 6.61157 177.945 6.62536 179.262Z" fill="#FFFAF0"/>
<path d="M107.068 181.124C105.882 181.124 104.944 180.286 104.93 179.195C104.93 178.104 105.854 177.226 107.027 177.213C108.186 177.213 109.165 178.091 109.165 179.155C109.165 180.233 108.227 181.111 107.055 181.124H107.068Z" fill="#FFFAF0"/>
<path d="M114.573 177.559C114.007 178.583 113.994 179.608 114.504 180.646H109.869C110.435 179.608 110.407 178.597 109.786 177.572H114.573V177.559Z" fill="#FFFAF0"/>
<path d="M393.156 177.727C393.787 178.919 393.802 180.11 393.228 181.334C426.45 181.396 459.644 181.459 492.795 181.537C492.695 180.942 492.522 180.361 492.508 179.766C492.508 179.17 492.666 178.574 492.766 177.931C459.63 177.868 426.422 177.805 393.156 177.727Z" fill="#FFFAF0"/>
<path d="M493.469 179.687C493.469 181.255 494.617 182.494 496.08 182.51C497.572 182.51 498.777 181.287 498.777 179.719C498.777 178.166 497.572 176.88 496.109 176.88C494.646 176.88 493.469 178.135 493.469 179.687Z" fill="#FFFAF0"/>
<path d="M390.301 181.882C391.521 181.882 392.482 180.895 392.496 179.609C392.496 178.323 391.549 177.288 390.344 177.272C389.154 177.272 388.15 178.307 388.135 179.562C388.135 180.832 389.096 181.867 390.301 181.882Z" fill="#FFFAF0"/>
<path d="M382.599 177.68C383.172 178.888 383.201 180.095 382.67 181.318C384.277 181.318 385.826 181.318 387.433 181.318C386.845 180.095 386.873 178.888 387.519 177.68C385.855 177.68 384.248 177.68 382.599 177.68Z" fill="#FFFAF0"/>
<path d="M139.826 188.196C138.528 188.196 137.34 187.965 136.262 187.503C135.206 187.019 134.282 186.37 133.49 185.556C132.72 184.72 132.115 183.763 131.675 182.685C131.257 181.607 131.048 180.463 131.048 179.253C131.048 177.625 131.422 176.14 132.17 174.798C132.918 173.456 133.952 172.378 135.272 171.564C136.614 170.75 138.143 170.343 139.859 170.343C141.597 170.343 143.104 170.761 144.38 171.597C145.678 172.411 146.679 173.489 147.383 174.831C148.109 176.151 148.472 177.581 148.472 179.121C148.472 179.341 148.461 179.561 148.439 179.781C148.439 179.979 148.428 180.133 148.406 180.243H134.117C134.205 181.365 134.513 182.366 135.041 183.246C135.591 184.104 136.295 184.786 137.153 185.292C138.011 185.776 138.935 186.018 139.925 186.018C140.981 186.018 141.971 185.754 142.895 185.226C143.841 184.698 144.49 184.005 144.842 183.147L147.35 183.84C146.976 184.676 146.415 185.424 145.667 186.084C144.941 186.744 144.072 187.261 143.06 187.635C142.07 188.009 140.992 188.196 139.826 188.196ZM134.018 178.23H145.766C145.678 177.108 145.359 176.118 144.809 175.26C144.259 174.402 143.555 173.731 142.697 173.247C141.839 172.763 140.893 172.521 139.859 172.521C138.847 172.521 137.912 172.763 137.054 173.247C136.196 173.731 135.492 174.402 134.942 175.26C134.414 176.118 134.106 177.108 134.018 178.23ZM169.289 187.866H166.385V178.23C166.385 176.404 166.099 175.073 165.527 174.237C164.977 173.379 164.13 172.95 162.986 172.95C162.194 172.95 161.402 173.148 160.61 173.544C159.84 173.94 159.147 174.479 158.531 175.161C157.937 175.821 157.508 176.591 157.244 177.471V187.866H154.34V170.64H156.98V174.336C157.442 173.522 158.036 172.818 158.762 172.224C159.488 171.63 160.313 171.168 161.237 170.838C162.161 170.508 163.129 170.343 164.141 170.343C165.131 170.343 165.956 170.53 166.616 170.904C167.298 171.256 167.826 171.762 168.2 172.422C168.596 173.06 168.871 173.819 169.025 174.699C169.201 175.579 169.289 176.536 169.289 177.57V187.866ZM174.234 194.004C173.486 194.004 172.771 193.894 172.089 193.674C171.407 193.454 170.802 193.102 170.274 192.618L171.627 190.671C171.935 190.957 172.298 191.155 172.716 191.265C173.112 191.375 173.508 191.43 173.904 191.43C174.388 191.43 174.839 191.309 175.257 191.067C175.675 190.825 176.016 190.484 176.28 190.044C176.544 189.626 176.676 189.153 176.676 188.625V170.64H179.58V188.427C179.58 189.505 179.327 190.462 178.821 191.298C178.315 192.156 177.655 192.816 176.841 193.278C176.049 193.762 175.18 194.004 174.234 194.004ZM176.676 167.406V163.776H179.58V167.406H176.676ZM194.44 188.196C193.142 188.196 191.965 187.965 190.909 187.503C189.853 187.019 188.94 186.37 188.17 185.556C187.4 184.72 186.806 183.763 186.388 182.685C185.97 181.607 185.761 180.474 185.761 179.286C185.761 178.076 185.97 176.932 186.388 175.854C186.806 174.776 187.4 173.83 188.17 173.016C188.94 172.18 189.853 171.531 190.909 171.069C191.987 170.585 193.164 170.343 194.44 170.343C195.738 170.343 196.915 170.585 197.971 171.069C199.027 171.531 199.94 172.18 200.71 173.016C201.502 173.83 202.107 174.776 202.525 175.854C202.943 176.932 203.152 178.076 203.152 179.286C203.152 180.474 202.943 181.607 202.525 182.685C202.107 183.763 201.513 184.72 200.743 185.556C199.973 186.37 199.049 187.019 197.971 187.503C196.915 187.965 195.738 188.196 194.44 188.196ZM188.731 179.319C188.731 180.507 188.984 181.585 189.49 182.553C190.018 183.521 190.711 184.291 191.569 184.863C192.427 185.413 193.384 185.688 194.44 185.688C195.496 185.688 196.453 185.402 197.311 184.83C198.191 184.258 198.884 183.488 199.39 182.52C199.918 181.53 200.182 180.441 200.182 179.253C200.182 178.065 199.918 176.987 199.39 176.019C198.884 175.051 198.191 174.281 197.311 173.709C196.453 173.137 195.496 172.851 194.44 172.851C193.384 172.851 192.427 173.148 191.569 173.742C190.711 174.314 190.018 175.084 189.49 176.052C188.984 177.02 188.731 178.109 188.731 179.319ZM209.49 192.552C209.776 192.574 210.062 192.596 210.348 192.618C210.634 192.662 210.854 192.684 211.008 192.684C211.36 192.684 211.668 192.563 211.932 192.321C212.196 192.079 212.482 191.606 212.79 190.902C213.12 190.22 213.538 189.208 214.044 187.866L206.751 170.64H209.82L215.628 184.929L220.875 170.64H223.746L215.364 192.387C215.166 192.893 214.869 193.366 214.473 193.806C214.099 194.268 213.615 194.631 213.021 194.895C212.427 195.159 211.712 195.291 210.876 195.291C210.678 195.291 210.469 195.28 210.249 195.258C210.051 195.236 209.798 195.192 209.49 195.126V192.552ZM260.053 170.64H262.858L255.532 187.866H252.991L249.658 179.748L246.358 187.866H243.817L236.491 170.64H239.263L245.203 184.995L247.975 177.933L245.071 170.673H247.612L249.658 176.151L251.704 170.673H254.245L251.374 177.933L254.146 184.995L260.053 170.64ZM268.213 187.866V170.64H271.117V187.866H268.213ZM268.213 167.406V163.776H271.117V167.406H268.213ZM287.369 187.008C287.127 187.118 286.797 187.261 286.379 187.437C285.961 187.613 285.477 187.767 284.927 187.899C284.377 188.031 283.794 188.097 283.178 188.097C282.474 188.097 281.825 187.976 281.231 187.734C280.637 187.47 280.164 187.074 279.812 186.546C279.46 185.996 279.284 185.314 279.284 184.5V172.917H276.941V170.64H279.284V164.898H282.188V170.64H286.049V172.917H282.188V183.609C282.232 184.225 282.441 184.687 282.815 184.995C283.189 185.281 283.629 185.424 284.135 185.424C284.707 185.424 285.235 185.325 285.719 185.127C286.203 184.929 286.522 184.786 286.676 184.698L287.369 187.008ZM307.649 187.866H304.745V178.23C304.745 176.47 304.426 175.15 303.788 174.27C303.172 173.39 302.281 172.95 301.115 172.95C300.367 172.95 299.608 173.148 298.838 173.544C298.09 173.94 297.43 174.479 296.858 175.161C296.286 175.821 295.868 176.591 295.604 177.471V187.866H292.7V163.776H295.604V174.336C296.286 173.104 297.21 172.136 298.376 171.432C299.564 170.706 300.84 170.343 302.204 170.343C303.238 170.343 304.096 170.53 304.778 170.904C305.482 171.256 306.043 171.762 306.461 172.422C306.879 173.082 307.176 173.852 307.352 174.732C307.55 175.59 307.649 176.536 307.649 177.57V187.866ZM325.627 180.969V170.64H328.531V180.408C328.531 182.168 328.839 183.488 329.455 184.368C330.071 185.248 330.984 185.688 332.194 185.688C332.986 185.688 333.745 185.523 334.471 185.193C335.219 184.841 335.89 184.346 336.484 183.708C337.078 183.07 337.54 182.311 337.87 181.431V170.64H340.774V184.566C340.774 184.918 340.84 185.182 340.972 185.358C341.126 185.512 341.368 185.6 341.698 185.622V187.866C341.368 187.91 341.104 187.932 340.906 187.932C340.73 187.954 340.554 187.965 340.378 187.965C339.828 187.965 339.355 187.8 338.959 187.47C338.563 187.118 338.354 186.689 338.332 186.183L338.266 184.17C337.518 185.446 336.506 186.436 335.23 187.14C333.976 187.844 332.601 188.196 331.105 188.196C329.301 188.196 327.937 187.591 327.013 186.381C326.089 185.149 325.627 183.345 325.627 180.969ZM354.158 188.196C352.728 188.196 351.386 187.965 350.132 187.503C348.878 187.019 347.8 186.304 346.898 185.358L348.02 183.312C349.01 184.236 350 184.896 350.99 185.292C351.98 185.688 352.992 185.886 354.026 185.886C355.214 185.886 356.182 185.666 356.93 185.226C357.678 184.764 358.052 184.093 358.052 183.213C358.052 182.575 357.854 182.102 357.458 181.794C357.084 181.486 356.545 181.233 355.841 181.035C355.137 180.815 354.301 180.573 353.333 180.309C352.145 179.957 351.144 179.583 350.33 179.187C349.516 178.791 348.9 178.296 348.482 177.702C348.064 177.108 347.855 176.36 347.855 175.458C347.855 174.358 348.141 173.434 348.713 172.686C349.285 171.916 350.066 171.333 351.056 170.937C352.068 170.541 353.212 170.343 354.488 170.343C355.764 170.343 356.919 170.541 357.953 170.937C358.987 171.333 359.878 171.916 360.626 172.686L359.306 174.699C358.624 173.995 357.876 173.478 357.062 173.148C356.248 172.796 355.335 172.62 354.323 172.62C353.729 172.62 353.146 172.697 352.574 172.851C352.002 172.983 351.529 173.236 351.155 173.61C350.781 173.962 350.594 174.468 350.594 175.128C350.594 175.678 350.737 176.118 351.023 176.448C351.331 176.756 351.771 177.02 352.343 177.24C352.937 177.46 353.652 177.702 354.488 177.966C355.786 178.34 356.908 178.714 357.854 179.088C358.822 179.462 359.57 179.946 360.098 180.54C360.626 181.134 360.89 181.959 360.89 183.015C360.89 184.643 360.274 185.919 359.042 186.843C357.81 187.745 356.182 188.196 354.158 188.196Z" fill="#FFFAF0"/>
<path d="M17.1591 135.948C12.3405 135.948 8.35582 134.419 5.20515 131.361C2.14715 128.396 0.618148 123.809 0.618148 117.6C0.618148 113.059 1.49848 108.611 3.25915 104.256C5.01982 99.9007 7.38282 96.0087 10.3481 92.5801C13.3135 89.0587 16.6031 86.2787 20.2171 84.2401C23.9238 82.2014 27.6768 81.1821 31.4761 81.1821C35.3682 81.1821 38.1482 82.1551 39.8162 84.1011C41.5768 86.0471 42.4572 88.3174 42.4572 90.9121C42.4572 93.5067 41.8085 96.0551 40.5112 98.5571C39.3065 100.966 37.6385 102.171 35.5071 102.171C33.7465 102.171 32.3102 101.291 31.1982 99.5301C32.1248 98.8814 33.0978 97.6767 34.1172 95.9161C35.1365 94.1554 35.6461 91.8851 35.6461 89.1051C35.6461 88.3637 35.4608 87.8077 35.0902 87.4371C34.7195 86.9737 34.0245 86.7421 33.0052 86.7421C30.6885 86.7421 28.2328 87.8077 25.6381 89.9391C23.1361 91.9777 20.7731 94.6651 18.5491 98.0011C16.4178 101.244 14.6571 104.719 13.2671 108.426C11.9698 112.04 11.3211 115.376 11.3211 118.434C11.3211 121.029 11.9698 123.438 13.2671 125.662C14.6571 127.793 17.2981 128.859 21.1901 128.859C24.7115 128.859 28.3718 127.84 32.1712 125.801C35.9705 123.762 39.5382 120.936 42.8741 117.322C46.2102 113.615 48.8975 109.214 50.9361 104.117L53.7162 106.619C51.4922 112.272 48.3878 117.322 44.4032 121.77C40.5112 126.125 36.1558 129.554 31.3371 132.056C26.6111 134.651 21.8851 135.948 17.1591 135.948ZM54.1342 133.446C52.0956 133.446 50.6129 131.871 49.6862 128.72C48.8522 125.569 48.4352 121.909 48.4352 117.739C48.4352 113.476 49.1302 108.333 50.5202 102.31C52.0029 96.2867 53.9489 89.9391 56.3582 83.2671C58.8602 76.5951 61.5939 70.0621 64.5592 63.6681C67.6172 57.2741 70.7216 51.4824 73.8722 46.2931C77.1156 41.0111 80.1736 36.7947 83.0462 33.6441C86.0116 30.4934 88.6062 28.9181 90.8302 28.9181C92.7762 28.9181 94.2589 29.9837 95.2782 32.1151C96.2976 34.2464 96.8072 36.4704 96.8072 38.7871C96.8072 41.2891 96.2049 44.3934 95.0002 48.1001C93.8882 51.7141 92.3129 55.6061 90.2742 59.7761C88.2356 63.9461 85.8262 68.0697 83.0462 72.1471C80.3589 76.1317 77.3936 79.7921 74.1502 83.1281C70.9996 86.4641 67.7099 89.1514 64.2812 91.1901C63.0766 94.3407 62.1036 97.3061 61.3622 100.086C60.7136 102.773 60.2502 105.322 59.9722 107.731C59.6942 110.14 59.5552 112.503 59.5552 114.82C59.5552 115.283 59.5552 115.793 59.5552 116.349C59.6479 116.812 59.6942 117.276 59.6942 117.739C60.0649 117.183 60.6672 115.747 61.5012 113.43C62.3352 111.113 63.4472 108.426 64.8372 105.368C66.3199 102.217 68.1269 99.1594 70.2582 96.1941C72.3896 93.1361 74.8916 90.6341 77.7642 88.6881C80.6369 86.6494 83.9266 85.6301 87.6332 85.6301C90.7839 85.6301 93.2396 86.3714 95.0002 87.8541C96.7609 89.2441 98.0119 91.0047 98.7532 93.1361C99.4946 95.1747 99.8652 97.2597 99.8652 99.3911C99.8652 102.356 99.3556 105.136 98.3362 107.731C97.4096 110.326 96.4366 112.781 95.4172 115.098C94.4906 117.322 94.0272 119.453 94.0272 121.492C94.0272 123.16 94.3979 124.318 95.1392 124.967C95.8806 125.616 96.7609 125.94 97.7802 125.94C99.8189 125.94 102.182 124.921 104.869 122.882C107.649 120.843 110.383 118.156 113.07 114.82C115.85 111.391 118.213 107.638 120.159 103.561L122.383 105.924C120.252 110.557 117.75 114.82 114.877 118.712C112.005 122.604 108.854 125.708 105.425 128.025C101.997 130.342 98.2899 131.5 94.3052 131.5C90.7839 131.5 88.0966 130.573 86.2432 128.72C84.3899 126.867 83.4632 124.55 83.4632 121.77C83.4632 119.824 83.7876 117.693 84.4362 115.376C85.1776 112.967 85.8726 110.557 86.5212 108.148C87.1699 105.739 87.4942 103.561 87.4942 101.615C87.4942 99.3911 86.9846 97.8621 85.9652 97.0281C85.0386 96.1941 83.8802 95.7771 82.4902 95.7771C80.1736 95.7771 78.0886 96.7037 76.2352 98.5571C74.3819 100.318 72.7139 102.634 71.2312 105.507C69.7486 108.38 68.3586 111.438 67.0612 114.681C65.7639 117.832 64.4666 120.843 63.1692 123.716C61.8719 126.589 60.4819 128.905 58.9992 130.666C57.6092 132.519 55.9876 133.446 54.1342 133.446ZM67.2002 82.2941C69.6096 80.1627 71.9262 77.6144 74.1502 74.6491C76.3742 71.6837 78.4129 68.6257 80.2662 65.4751C82.2122 62.2317 83.8802 59.1274 85.2702 56.1621C86.7529 53.1041 87.9112 50.3704 88.7452 47.9611C89.5792 45.5517 90.0426 43.6984 90.1352 42.4011C90.1352 42.3084 90.1352 42.2621 90.1352 42.2621C90.1352 42.1694 90.1352 42.0767 90.1352 41.9841C89.5792 41.9841 88.3746 43.1424 86.5212 45.4591C84.7606 47.6831 82.6756 50.7411 80.2662 54.6331C77.9496 58.4324 75.5866 62.7414 73.1772 67.5601C70.8606 72.3787 68.8682 77.2901 67.2002 82.2941ZM125.6 132.612C121.43 132.612 118.557 131.222 116.982 128.442C115.499 125.755 114.758 122.789 114.758 119.546C114.758 116.581 115.221 113.569 116.148 110.511C117.074 107.36 118.325 104.441 119.901 101.754C121.569 99.0667 123.376 96.9354 125.322 95.3601C127.36 93.6921 129.399 92.8581 131.438 92.8581C132.086 92.8581 132.828 92.9971 133.662 93.2751C134.588 93.4604 135.237 93.7847 135.608 94.2481C134.496 95.6381 133.337 97.3524 132.133 99.3911C131.021 101.43 129.955 103.607 128.936 105.924C128.009 108.148 127.268 110.418 126.712 112.735C126.156 115.052 125.878 117.183 125.878 119.129C125.878 120.982 126.202 122.511 126.851 123.716C127.592 124.921 128.843 125.523 130.604 125.523C132.364 125.523 134.449 124.55 136.859 122.604C139.361 120.565 141.724 118.249 143.948 115.654C140.982 112.967 138.851 110.048 137.554 106.897C136.256 103.654 135.608 99.7617 135.608 95.2211C135.608 93.2751 136.071 91.0511 136.998 88.5491C138.017 86.0471 139.592 83.8694 141.724 82.0161C143.948 80.1627 146.913 79.2361 150.62 79.2361C154.604 79.2361 157.384 80.3481 158.96 82.5721C160.628 84.7961 161.462 87.4371 161.462 90.4951C161.462 93.9237 160.535 97.7694 158.682 102.032C156.921 106.295 154.79 110.326 152.288 114.125C153.4 114.681 154.697 114.959 156.18 114.959C157.57 114.959 159.238 114.635 161.184 113.986C163.13 113.337 165.029 112.272 166.883 110.789C168.736 109.214 170.219 107.129 171.331 104.534L173.833 106.341C171.794 111.067 169.06 114.542 165.632 116.766C162.296 118.897 159.006 119.963 155.763 119.963C154.558 119.963 153.353 119.87 152.149 119.685C150.944 119.407 149.832 119.083 148.813 118.712C145.662 122.419 142.048 125.662 137.971 128.442C133.893 131.222 129.77 132.612 125.6 132.612ZM147.562 111.206C149.786 107.963 151.685 104.488 153.261 100.781C154.836 97.0744 155.624 93.6457 155.624 90.4951C155.624 88.3637 155.299 86.8347 154.651 85.9081C154.002 84.8887 153.029 84.3791 151.732 84.3791C149.971 84.3791 148.164 85.6301 146.311 88.1321C144.457 90.6341 143.531 93.7847 143.531 97.5841C143.531 99.5301 143.855 101.893 144.504 104.673C145.245 107.453 146.264 109.631 147.562 111.206ZM183.851 135.948C179.032 135.948 175.047 134.419 171.897 131.361C168.839 128.396 167.31 123.809 167.31 117.6C167.31 113.059 168.19 108.611 169.951 104.256C171.711 99.9007 174.074 96.0087 177.04 92.5801C180.005 89.0587 183.295 86.2787 186.909 84.2401C190.615 82.2014 194.368 81.1821 198.168 81.1821C202.06 81.1821 204.84 82.1551 206.508 84.1011C208.268 86.0471 209.149 88.3174 209.149 90.9121C209.149 93.5067 208.5 96.0551 207.203 98.5571C205.998 100.966 204.33 102.171 202.199 102.171C200.438 102.171 199.002 101.291 197.89 99.5301C198.816 98.8814 199.789 97.6767 200.809 95.9161C201.828 94.1554 202.338 91.8851 202.338 89.1051C202.338 88.3637 202.152 87.8077 201.782 87.4371C201.411 86.9737 200.716 86.7421 199.697 86.7421C197.38 86.7421 194.924 87.8077 192.33 89.9391C189.828 91.9777 187.465 94.6651 185.241 98.0011C183.109 101.244 181.349 104.719 179.959 108.426C178.661 112.04 178.013 115.376 178.013 118.434C178.013 121.029 178.661 123.438 179.959 125.662C181.349 127.793 183.99 128.859 187.882 128.859C191.403 128.859 195.063 127.84 198.863 125.801C202.662 123.762 206.23 120.936 209.566 117.322C212.902 113.615 215.589 109.214 217.628 104.117L220.408 106.619C218.184 112.272 215.079 117.322 211.095 121.77C207.203 126.125 202.847 129.554 198.029 132.056C193.303 134.651 188.577 135.948 183.851 135.948ZM223.606 132.612C219.436 132.612 216.563 131.222 214.988 128.442C213.505 125.755 212.764 122.789 212.764 119.546C212.764 116.581 213.227 113.569 214.154 110.511C215.08 107.36 216.331 104.441 217.907 101.754C219.575 99.0667 221.382 96.9354 223.328 95.3601C225.366 93.6921 227.405 92.8581 229.444 92.8581C230.092 92.8581 230.834 92.9971 231.668 93.2751C232.594 93.4604 233.243 93.7847 233.614 94.2481C232.502 95.6381 231.343 97.3524 230.139 99.3911C229.027 101.43 227.961 103.607 226.942 105.924C226.015 108.148 225.274 110.418 224.718 112.735C224.162 115.052 223.884 117.183 223.884 119.129C223.884 120.982 224.208 122.511 224.857 123.716C225.598 124.921 226.849 125.523 228.61 125.523C230.37 125.523 232.455 124.55 234.865 122.604C237.367 120.565 239.73 118.249 241.954 115.654C238.988 112.967 236.857 110.048 235.56 106.897C234.262 103.654 233.614 99.7617 233.614 95.2211C233.614 93.2751 234.077 91.0511 235.004 88.5491C236.023 86.0471 237.598 83.8694 239.73 82.0161C241.954 80.1627 244.919 79.2361 248.626 79.2361C252.61 79.2361 255.39 80.3481 256.966 82.5721C258.634 84.7961 259.468 87.4371 259.468 90.4951C259.468 93.9237 258.541 97.7694 256.688 102.032C254.927 106.295 252.796 110.326 250.294 114.125C251.406 114.681 252.703 114.959 254.186 114.959C255.576 114.959 257.244 114.635 259.19 113.986C261.136 113.337 263.035 112.272 264.889 110.789C266.742 109.214 268.225 107.129 269.337 104.534L271.839 106.341C269.8 111.067 267.066 114.542 263.638 116.766C260.302 118.897 257.012 119.963 253.769 119.963C252.564 119.963 251.359 119.87 250.155 119.685C248.95 119.407 247.838 119.083 246.819 118.712C243.668 122.419 240.054 125.662 235.977 128.442C231.899 131.222 227.776 132.612 223.606 132.612ZM245.568 111.206C247.792 107.963 249.691 104.488 251.267 100.781C252.842 97.0744 253.63 93.6457 253.63 90.4951C253.63 88.3637 253.305 86.8347 252.657 85.9081C252.008 84.8887 251.035 84.3791 249.738 84.3791C247.977 84.3791 246.17 85.6301 244.317 88.1321C242.463 90.6341 241.537 93.7847 241.537 97.5841C241.537 99.5301 241.861 101.893 242.51 104.673C243.251 107.453 244.27 109.631 245.568 111.206ZM314.211 132.334C309.856 132.334 306.798 130.898 305.037 128.025C303.369 125.06 302.535 121.585 302.535 117.6C302.535 113.059 303.369 107.731 305.037 101.615C306.705 95.4991 308.883 89.1051 311.57 82.4331C314.35 75.6684 317.362 69.0891 320.605 62.6951C323.941 56.2084 327.277 50.3704 330.613 45.1811C333.949 39.9917 337.007 35.8681 339.787 32.8101C342.66 29.6594 344.976 28.0841 346.737 28.0841C347.942 28.0841 348.961 28.7327 349.795 30.0301C350.629 31.2347 351.278 32.7174 351.741 34.4781C352.297 36.1461 352.575 37.7214 352.575 39.2041C352.575 41.7061 351.926 44.9957 350.629 49.0731C349.424 53.0577 347.664 57.4594 345.347 62.2781C343.123 67.0967 340.436 72.0544 337.285 77.1511C334.227 82.1551 330.798 86.9274 326.999 91.4681C323.292 96.0087 319.308 99.9471 315.045 103.283C314.674 105.6 314.304 107.916 313.933 110.233C313.655 112.457 313.516 114.496 313.516 116.349C313.516 119.685 314.072 122.141 315.184 123.716C316.296 125.199 317.732 125.94 319.493 125.94C321.81 125.94 324.173 124.874 326.582 122.743C329.084 120.519 331.447 117.739 333.671 114.403C335.988 110.974 337.98 107.453 339.648 103.839L342.984 105.646C338.999 113.893 334.551 120.426 329.64 125.245C324.729 129.971 319.586 132.334 314.211 132.334ZM317.547 94.6651C320.698 91.2364 323.663 87.5297 326.443 83.5451C329.316 79.4677 331.91 75.3441 334.227 71.1741C336.636 67.0041 338.721 62.9731 340.482 59.0811C342.243 55.1891 343.586 51.7141 344.513 48.6561C345.532 45.5054 346.088 43.0034 346.181 41.1501C346.181 41.0574 346.181 41.0111 346.181 41.0111C346.181 40.9184 346.181 40.8257 346.181 40.7331C345.44 40.7331 344.235 41.7987 342.567 43.9301C340.992 45.9687 339.092 48.7951 336.868 52.4091C334.644 56.0231 332.327 60.1467 329.918 64.7801C327.601 69.4134 325.331 74.3247 323.107 79.5141C320.976 84.6107 319.122 89.6611 317.547 94.6651ZM345.502 132.612C341.332 132.612 338.459 131.222 336.884 128.442C335.401 125.755 334.66 122.789 334.66 119.546C334.66 116.581 335.123 113.569 336.05 110.511C336.977 107.36 338.228 104.441 339.803 101.754C341.471 99.0667 343.278 96.9354 345.224 95.3601C347.263 93.6921 349.301 92.8581 351.34 92.8581C351.989 92.8581 352.73 92.9971 353.564 93.2751C354.491 93.4604 355.139 93.7847 355.51 94.2481C354.398 95.6381 353.24 97.3524 352.035 99.3911C350.923 101.43 349.857 103.607 348.838 105.924C347.911 108.148 347.17 110.418 346.614 112.735C346.058 115.052 345.78 117.183 345.78 119.129C345.78 120.982 346.104 122.511 346.753 123.716C347.494 124.921 348.745 125.523 350.506 125.523C352.267 125.523 354.352 124.55 356.761 122.604C359.263 120.565 361.626 118.249 363.85 115.654C360.885 112.967 358.753 110.048 357.456 106.897C356.159 103.654 355.51 99.7617 355.51 95.2211C355.51 93.2751 355.973 91.0511 356.9 88.5491C357.919 86.0471 359.495 83.8694 361.626 82.0161C363.85 80.1627 366.815 79.2361 370.522 79.2361C374.507 79.2361 377.287 80.3481 378.862 82.5721C380.53 84.7961 381.364 87.4371 381.364 90.4951C381.364 93.9237 380.437 97.7694 378.584 102.032C376.823 106.295 374.692 110.326 372.19 114.125C373.302 114.681 374.599 114.959 376.082 114.959C377.472 114.959 379.14 114.635 381.086 113.986C383.032 113.337 384.932 112.272 386.785 110.789C388.638 109.214 390.121 107.129 391.233 104.534L393.735 106.341C391.696 111.067 388.963 114.542 385.534 116.766C382.198 118.897 378.908 119.963 375.665 119.963C374.46 119.963 373.256 119.87 372.051 119.685C370.846 119.407 369.734 119.083 368.715 118.712C365.564 122.419 361.95 125.662 357.873 128.442C353.796 131.222 349.672 132.612 345.502 132.612ZM367.464 111.206C369.688 107.963 371.588 104.488 373.163 100.781C374.738 97.0744 375.526 93.6457 375.526 90.4951C375.526 88.3637 375.202 86.8347 374.553 85.9081C373.904 84.8887 372.931 84.3791 371.634 84.3791C369.873 84.3791 368.066 85.6301 366.213 88.1321C364.36 90.6341 363.433 93.7847 363.433 97.5841C363.433 99.5301 363.757 101.893 364.406 104.673C365.147 107.453 366.167 109.631 367.464 111.206ZM403.753 135.948C398.934 135.948 394.95 134.419 391.799 131.361C388.741 128.396 387.212 123.809 387.212 117.6C387.212 113.059 388.092 108.611 389.853 104.256C391.614 99.9007 393.977 96.0087 396.942 92.5801C399.907 89.0587 403.197 86.2787 406.811 84.2401C410.518 82.2014 414.271 81.1821 418.07 81.1821C421.962 81.1821 424.742 82.1551 426.41 84.1011C428.171 86.0471 429.051 88.3174 429.051 90.9121C429.051 93.5067 428.402 96.0551 427.105 98.5571C425.9 100.966 424.232 102.171 422.101 102.171C420.34 102.171 418.904 101.291 417.792 99.5301C418.719 98.8814 419.692 97.6767 420.711 95.9161C421.73 94.1554 422.24 91.8851 422.24 89.1051C422.24 88.3637 422.055 87.8077 421.684 87.4371C421.313 86.9737 420.618 86.7421 419.599 86.7421C417.282 86.7421 414.827 87.8077 412.232 89.9391C409.73 91.9777 407.367 94.6651 405.143 98.0011C403.012 101.244 401.251 104.719 399.861 108.426C398.564 112.04 397.915 115.376 397.915 118.434C397.915 121.029 398.564 123.438 399.861 125.662C401.251 127.793 403.892 128.859 407.784 128.859C411.305 128.859 414.966 127.84 418.765 125.801C422.564 123.762 426.132 120.936 429.468 117.322C432.804 113.615 435.491 109.214 437.53 104.117L440.31 106.619C438.086 112.272 434.982 117.322 430.997 121.77C427.105 126.125 422.75 129.554 417.931 132.056C413.205 134.651 408.479 135.948 403.753 135.948ZM443.508 132.612C439.338 132.612 436.465 131.222 434.89 128.442C433.407 125.755 432.666 122.789 432.666 119.546C432.666 116.581 433.129 113.569 434.056 110.511C434.983 107.36 436.234 104.441 437.809 101.754C439.477 99.0667 441.284 96.9354 443.23 95.3601C445.269 93.6921 447.307 92.8581 449.346 92.8581C449.995 92.8581 450.736 92.9971 451.57 93.2751C452.497 93.4604 453.145 93.7847 453.516 94.2481C452.404 95.6381 451.246 97.3524 450.041 99.3911C448.929 101.43 447.863 103.607 446.844 105.924C445.917 108.148 445.176 110.418 444.62 112.735C444.064 115.052 443.786 117.183 443.786 119.129C443.786 120.982 444.11 122.511 444.759 123.716C445.5 124.921 446.751 125.523 448.512 125.523C450.273 125.523 452.358 124.55 454.767 122.604C457.269 120.565 459.632 118.249 461.856 115.654C458.891 112.967 456.759 110.048 455.462 106.897C454.165 103.654 453.516 99.7617 453.516 95.2211C453.516 93.2751 453.979 91.0511 454.906 88.5491C455.925 86.0471 457.501 83.8694 459.632 82.0161C461.856 80.1627 464.821 79.2361 468.528 79.2361C472.513 79.2361 475.293 80.3481 476.868 82.5721C478.536 84.7961 479.37 87.4371 479.37 90.4951C479.37 93.9237 478.443 97.7694 476.59 102.032C474.829 106.295 472.698 110.326 470.196 114.125C471.308 114.681 472.605 114.959 474.088 114.959C475.478 114.959 477.146 114.635 479.092 113.986C481.038 113.337 482.938 112.272 484.791 110.789C486.644 109.214 488.127 107.129 489.239 104.534L491.741 106.341C489.702 111.067 486.969 114.542 483.54 116.766C480.204 118.897 476.914 119.963 473.671 119.963C472.466 119.963 471.262 119.87 470.057 119.685C468.852 119.407 467.74 119.083 466.721 118.712C463.57 122.419 459.956 125.662 455.879 128.442C451.802 131.222 447.678 132.612 443.508 132.612ZM465.47 111.206C467.694 107.963 469.594 104.488 471.169 100.781C472.744 97.0744 473.532 93.6457 473.532 90.4951C473.532 88.3637 473.208 86.8347 472.559 85.9081C471.91 84.8887 470.937 84.3791 469.64 84.3791C467.879 84.3791 466.072 85.6301 464.219 88.1321C462.366 90.6341 461.439 93.7847 461.439 97.5841C461.439 99.5301 461.763 101.893 462.412 104.673C463.153 107.453 464.173 109.631 465.47 111.206Z" fill="#FFFAF0"/>
</svg>
