<svg width="23" height="24" viewBox="0 0 23 24" fill="none" xmlns="http://www.w3.org/2000/svg">
<path d="M17.9469 22.0998C17.0229 22.3728 15.9309 22.4988 14.6499 22.4988H8.34986C7.06886 22.4988 5.97686 22.3728 5.05286 22.0998C5.28386 19.3698 8.08736 17.2173 11.4999 17.2173C14.9124 17.2173 17.7159 19.3698 17.9469 22.0998Z" stroke="#52341E" stroke-width="1.5" stroke-linecap="round" stroke-linejoin="round"/>
<path d="M14.65 1.50098H8.35C3.1 1.50098 1 3.60098 1 8.85098V15.151C1 19.12 2.197 21.2935 5.053 22.102C5.284 19.372 8.0875 17.2195 11.5 17.2195C14.9125 17.2195 17.716 19.372 17.947 22.102C20.803 21.2935 22 19.12 22 15.151V8.85098C22 3.60098 19.9 1.50098 14.65 1.50098ZM11.5 14.2795C9.421 14.2795 7.741 12.589 7.741 10.51C7.741 8.43098 9.421 6.75098 11.5 6.75098C13.579 6.75098 15.259 8.43098 15.259 10.51C15.259 12.589 13.579 14.2795 11.5 14.2795Z" stroke="#52341E" stroke-width="1.5" stroke-linecap="round" stroke-linejoin="round"/>
<path d="M15.259 10.5095C15.259 12.5885 13.579 14.279 11.5 14.279C9.421 14.279 7.741 12.5885 7.741 10.5095C7.741 8.43049 9.421 6.75049 11.5 6.75049C13.579 6.75049 15.259 8.43049 15.259 10.5095Z" stroke="#52341E" stroke-width="1.5" stroke-linecap="round" stroke-linejoin="round"/>
</svg>
